<svg width="90" height="71" viewBox="0 0 90 71" fill="none" xmlns="http://www.w3.org/2000/svg">
<path d="M2.94627 0.35568L2.46606 0C2.46606 3.72656 5.67385 7.96855 8.18562 10.5584L8.99043 11.3401C9.50272 11.8404 10.0177 12.3369 10.5402 12.8273L11.0937 13.3413C14.5988 16.6794 19.0494 18.8165 23.4342 20.8457C24.9477 21.5442 26.4588 22.246 27.9401 23.0074C33.4451 26.0078 37.5697 30.1623 39.3172 36.1556C40.2354 39.6319 41.2998 43.7558 39.3802 47.0279C38.1581 49.0625 38.3083 51.073 38.5218 53.365C39.0993 56.4756 40.7346 58.8508 43.3292 60.7027C44.6685 59.2087 45.7357 57.7246 46.6732 55.9541C47.8545 53.4997 47.9915 50.6074 47.1065 48.0285C44.8277 45.4407 44.7599 43.089 44.8073 39.8189C45.8227 29.9708 53.7333 9.84569 80.7585 11.6736C81.9779 11.0964 83.0928 10.4446 84.1924 9.67241C86.8735 7.42522 88.9276 3.73833 89.3432 0.333532C88.6564 0.333532 88.6564 0.333532 88.199 0.75696C85.0031 3.97746 80.426 5.93942 76.1845 7.51781L76.1517 7.52946C72.6011 8.7876 66.687 10.8832 63.07 9.29328C59.8807 7.08541 56.2504 5.89191 52.454 5.0647C45.2422 3.71422 36.7403 4.23921 30.4387 8.22233C29.2953 8.97157 28.3196 9.58939 26.9526 9.8457C19.7352 10.1032 11.6711 6.64499 5.96701 2.56012L5.21317 2.00119L5.19944 1.99129C4.44662 1.44827 3.69395 0.905368 2.94627 0.35568Z" fill="#E8E6EC"/>
<path d="M12.4259 21.0135C13.4356 21.6019 13.9907 22.1125 14.615 23.0772C15.3682 24.6367 14.9799 26.2579 14.01 27.7493C13.6012 28.2471 13.184 28.7385 12.7599 29.2241C9.0393 33.5892 7.19553 38.454 7.16773 44.0897C7.16491 44.5055 7.16491 44.5055 7.16203 44.9298C7.22233 50.0205 9.05246 54.7294 12.7505 58.3573C15.8774 61.1741 19.7777 62.6021 24.0487 62.4899C26.5431 62.2168 28.909 61.4317 31.119 60.2868C32.3896 59.6806 33.0207 59.4049 34.4027 59.7031C35.5714 60.6162 36.0221 61.1484 36.2739 62.5838C36.3322 64.0154 36.2127 65.1335 35.6904 66.478C32.1209 69.8662 26.7754 70.5562 21.9829 70.5403C15.7667 70.3345 10.9348 67.3237 6.67411 63.1114C3.22416 59.4114 1.08073 54.2908 0.407284 49.3637C0.369659 49.1143 0.332034 48.8649 0.293269 48.608C-0.880823 39.4241 1.47306 30.7725 7.30723 23.4459C8.86342 21.6686 9.88639 20.7583 12.4259 21.0135Z" fill="#E8E6EC"/>
<ellipse cx="23.626" cy="38.0275" rx="4.76422" ry="6.00256" fill="#B09EFF"/>
</svg>
